<?xml version="1.0" encoding="iso-8859-1"?>
<!-- Generator: Adobe Illustrator 16.0.0, SVG Export Plug-In . SVG Version: 6.00 Build 0)  -->
<!DOCTYPE svg PUBLIC "-//W3C//DTD SVG 1.1//EN" "http://www.w3.org/Graphics/SVG/1.1/DTD/svg11.dtd">
<svg version="1.1" id="Capa_1" xmlns="http://www.w3.org/2000/svg" xmlns:xlink="http://www.w3.org/1999/xlink" x="0px" y="0px"
	 width="122.883px" height="122.883px" viewBox="0 0 122.883 122.883" style="enable-background:new 0 0 122.883 122.883;"
	 xml:space="preserve">
<g>
	<g>
		<circle cx="20.971" cy="8.957" r="8.957"/>
		<path d="M10.722,38.67c0.364-1.516,0.747-2.849,1.158-4.006v4.006h18.66v-4.006c0.41,1.157,0.794,2.49,1.158,4.006h2.297h4.849
			c-2.112-9.801-7.642-17.784-15.568-20.394l-2.23,2.243l-2.163-2.268c-0.007,0.004-0.015,0.004-0.021,0.006
			C17.755,18.519,6.11,23.68,3.575,38.669h4.849L10.722,38.67L10.722,38.67z M20.598,23.716l0.162-1.074l0.268-1.787h0.039
			l2.164,14.439l-2.164,2.956h-0.039l-2.161-2.956L20.598,23.716z"/>
		<path d="M34.09,24.288c4.938,4.942,6.901,14.382,6.901,14.382h78.316V24.288H34.09z M116.27,35.63H72.458v-8.304h43.812V35.63z"/>
		<circle cx="20.971" cy="50.869" r="8.956"/>
		<path d="M23.277,60.188l-2.23,2.244l-2.163-2.269c-0.007,0.004-0.015,0.004-0.021,0.006c-1.107,0.262-12.752,5.423-15.287,20.413
			h4.849h2.297c0.364-1.516,0.747-2.85,1.158-4.006v4.006h18.66v-4.006c0.41,1.156,0.794,2.49,1.158,4.006h2.297h4.849
			C36.733,70.781,31.204,62.797,23.277,60.188z M21.067,80.163h-0.039l-2.161-2.956l2.161-14.439h0.039l2.164,14.439L21.067,80.163z
			"/>
		<path d="M40.991,80.582h78.316V66.199H34.09C39.029,71.143,40.991,80.582,40.991,80.582z M87.525,69.238h28.743v8.305H87.525
			V69.238z"/>
		<circle cx="20.971" cy="93.171" r="8.956"/>
		<path d="M23.277,102.49l-2.23,2.242l-2.163-2.268c-0.007,0.004-0.015,0.004-0.021,0.006c-1.107,0.262-12.752,5.424-15.287,20.412
			h4.849h2.297c0.364-1.516,0.747-2.85,1.158-4.006v4.006h18.66v-4.006c0.41,1.156,0.794,2.49,1.158,4.006h2.297h4.849
			C36.733,113.083,31.204,105.1,23.277,102.49z M21.067,122.464h-0.039l-2.161-2.956l2.161-14.439h0.039l2.164,14.439
			L21.067,122.464z"/>
		<path d="M40.991,122.883h78.316v-14.381H34.09C39.029,113.443,40.991,122.883,40.991,122.883z M53.802,111.541h62.466v8.304
			H53.802V111.541z"/>
	</g>
</g>
<g>
</g>
<g>
</g>
<g>
</g>
<g>
</g>
<g>
</g>
<g>
</g>
<g>
</g>
<g>
</g>
<g>
</g>
<g>
</g>
<g>
</g>
<g>
</g>
<g>
</g>
<g>
</g>
<g>
</g>
</svg>
