<?xml version='1.0' encoding='iso-8859-1'?>
<!DOCTYPE svg PUBLIC '-//W3C//DTD SVG 1.1//EN' 'http://www.w3.org/Graphics/SVG/1.1/DTD/svg11.dtd'>
<svg fill="#333333" version="1.1" xmlns="http://www.w3.org/2000/svg" viewBox="0 0 297 297" xmlns:xlink="http://www.w3.org/1999/xlink" enable-background="new 0 0 297 297">
  <g>
    <path d="m89.729,101.161c25.394,0 46.053-20.659 46.053-46.053 0-25.394-20.659-46.053-46.053-46.053-25.394,0-46.053,20.659-46.053,46.053 1.42109e-14,25.394 20.659,46.053 46.053,46.053z"/>
    <path d="m296.788,213.636c-0.241-0.742-1.053-2.498-3.377-2.781l-27.882-3.406c-6.908-0.845-12.785-5.115-15.722-11.422l-11.855-25.466v0.001c-0.989-2.124-2.909-2.353-3.691-2.353-0.78,0.001-2.7,0.23-3.688,2.352l-11.856,25.465c-2.935,6.307-8.812,10.578-15.719,11.423l-27.885,3.406c-2.324,0.284-3.135,2.039-3.377,2.781-0.24,0.742-0.616,2.639 1.097,4.235l20.555,19.146c5.094,4.742 7.338,11.652 6.005,18.483l-5.377,27.569c-0.447,2.299 0.971,3.613 1.602,4.071 0.632,0.458 2.322,1.401 4.368,0.266l24.56-13.634c3.042-1.689 6.379-2.533 9.715-2.533 3.338,0 6.675,0.844 9.718,2.533l24.56,13.634c2.049,1.137 3.735,0.193 4.367-0.266 0.631-0.458 2.051-1.772 1.602-4.071l-5.377-27.571c-1.332-6.831 0.913-13.741 6.005-18.482l20.557-19.144c1.712-1.596 1.337-3.494 1.095-4.236z"/>
    <path d="m156.567,208.708c2.433-7.488 8.798-12.732 16.612-13.685l6.262-.765v-32.258c0-17.525-11.262-33.065-27.916-38.521l-.077-.025-24.359-4.033c-2.073-0.638-4.288,0.46-5.034,2.505l-27.638,75.834c-1.595,4.375-7.782,4.375-9.376,0l-27.639-75.834c-0.602-1.652-2.161-2.687-3.831-2.687-0.396,0-25.561,4.21-25.561,4.21-16.791,5.594-28.01,21.159-28.01,38.761v63.1c0,9.456 7.666,17.122 17.122,17.122h145.198c3.739,0 7.193-1.201 10.006-3.237l-10.362-9.651c-5.762-5.366-7.83-13.35-5.397-20.836z"/>
    <path d="m99.719,117.565c-1.057-1.151-2.601-1.73-4.163-1.73h-11.654c-1.563,0-3.107,0.579-4.163,1.73-1.636,1.782-1.873,4.356-0.712,6.368l6.229,9.391-2.916,24.601 5.743,15.277c0.56,1.536 2.733,1.536 3.293,0l5.743-15.277-2.916-24.601 6.229-9.391c1.16-2.011 0.923-4.585-0.713-6.368z"/>
  </g>
</svg>
