<?xml version="1.0" encoding="iso-8859-1"?>
<!-- Generator: Adobe Illustrator 19.0.0, SVG Export Plug-In . SVG Version: 6.00 Build 0)  -->
<svg version="1.1" id="Capa_1" xmlns="http://www.w3.org/2000/svg" xmlns:xlink="http://www.w3.org/1999/xlink" x="0px" y="0px"
	 viewBox="0 0 490 490" style="enable-background:new 0 0 490 490;" xml:space="preserve">
<g>
	<polygon points="60.44,233.482 48.895,196.215 37.351,233.482 0,233.482 30.22,256.513 18.676,293.785 48.895,270.744 
		79.115,293.785 67.571,256.513 97.791,233.482 	"/>
	<polygon points="158.492,233.482 146.948,196.215 135.403,233.482 98.052,233.482 128.272,256.513 116.728,293.785 
		146.948,270.744 177.168,293.785 165.623,256.513 195.843,233.482 	"/>
	<polygon points="256.544,233.482 245,196.215 233.456,233.482 196.104,233.482 226.324,256.513 214.78,293.785 245,270.744 
		275.22,293.785 263.676,256.513 293.895,233.482 	"/>
	<polygon points="354.596,233.482 343.052,196.215 331.508,233.482 294.157,233.482 324.377,256.513 312.832,293.785 
		343.052,270.744 373.272,293.785 361.728,256.513 391.948,233.482 	"/>
	<polygon points="441.105,196.215 429.56,233.482 392.209,233.482 422.429,256.513 410.885,293.785 441.105,270.744 
		471.324,293.785 459.78,256.513 490,233.482 452.649,233.482 	"/>
</g>
<g>
</g>
<g>
</g>
<g>
</g>
<g>
</g>
<g>
</g>
<g>
</g>
<g>
</g>
<g>
</g>
<g>
</g>
<g>
</g>
<g>
</g>
<g>
</g>
<g>
</g>
<g>
</g>
<g>
</g>
</svg>
