<?xml version='1.0' encoding='iso-8859-1'?>
<svg fill="#333333" version="1.1" xmlns="http://www.w3.org/2000/svg" viewBox="0 0 137.145 137.145" xmlns:xlink="http://www.w3.org/1999/xlink" enable-background="new 0 0 137.145 137.145">
  <g>
    <g>
      <path d="M109.715,0H27.429C12.28,0,0,12.281,0,27.429v82.287c0,15.149,12.28,27.429,27.429,27.429h82.286    c15.149,0,27.429-12.28,27.429-27.429V27.429C137.144,12.281,124.864,0,109.715,0z M123.43,102.858    c0,11.361-9.21,20.572-20.571,20.572H34.286c-11.361,0-20.571-9.211-20.571-20.572V34.286c0-11.361,9.21-20.572,20.571-20.572    h68.572c11.361,0,20.571,9.211,20.571,20.572V102.858z M68.57,27.385L55.871,52.243l-28.4,3.989l20.551,19.348l-4.853,27.322    L68.57,90l25.404,12.9L89.12,75.579l20.552-19.348l-28.401-3.989L68.57,27.385z"/>
    </g>
  </g>
</svg>
