<?xml version="1.0" encoding="iso-8859-1"?>
<!-- Generator: Adobe Illustrator 16.0.0, SVG Export Plug-In . SVG Version: 6.00 Build 0)  -->
<!DOCTYPE svg PUBLIC "-//W3C//DTD SVG 1.1//EN" "http://www.w3.org/Graphics/SVG/1.1/DTD/svg11.dtd">
<svg fill="#333333" version="1.1" id="Capa_1" xmlns="http://www.w3.org/2000/svg" xmlns:xlink="http://www.w3.org/1999/xlink" x="0px" y="0px"
	 width="402.083px" height="402.084px" viewBox="0 0 402.083 402.084" style="enable-background:new 0 0 402.083 402.084;"
	 xml:space="preserve">
<g>
	<g>
		<g>
			<path d="M318.034,45.671c0.243-11.669-4.746-30.608-37.938-35.906c0.003-0.151,0.008-0.301,0.012-0.452
				c0.051-2.452-0.891-4.821-2.604-6.574C275.787,0.987,273.436,0,270.982,0H131.103c-2.453,0-4.804,0.987-6.52,2.739
				c-1.716,1.753-2.655,4.122-2.605,6.574c0.003,0.151,0.009,0.301,0.013,0.452c-33.189,5.297-38.181,24.233-37.939,35.9
				c0.472,22.788,20.728,44.711,29.415,53.078c10.08,9.711,20.668,17.186,30.61,21.824c0.649,1.35,1.31,2.684,1.985,3.987
				c10.087,19.39,22.748,32.638,36.726,38.79v73.788H159.33c-7.031,0-12.728,5.699-12.728,12.729v15.973
				c0,7.029,5.696,12.729,12.728,12.729h83.429c7.028,0,12.729-5.698,12.729-12.729v-15.973c0-7.029-5.698-12.729-12.729-12.729
				h-23.461v-73.788c13.979-6.152,26.642-19.4,36.727-38.79c0.677-1.303,1.335-2.636,1.984-3.984
				c9.942-4.637,20.53-12.111,30.61-21.821C297.305,90.381,317.56,68.461,318.034,45.671z M126.129,85.597
				c-14.473-13.94-23.603-29.386-23.829-40.31c-0.184-8.876,6.695-14.629,20.484-17.18c1.553,23.628,5.107,45.133,10.539,63.887
				C130.896,90.003,128.483,87.865,126.129,85.597z M275.955,85.602c-2.356,2.27-4.77,4.407-7.194,6.397
				c5.434-18.755,8.987-40.261,10.541-63.892c13.789,2.552,20.668,8.306,20.482,17.184
				C299.557,56.217,290.427,71.663,275.955,85.602z"/>
			<path d="M115.724,340.473l-27.782-4.037L75.517,311.26c-0.841-1.703-2.575-2.781-4.475-2.781s-3.633,1.078-4.475,2.781
				l-12.424,25.176l-27.783,4.037c-1.881,0.272-3.441,1.591-4.028,3.396s-0.099,3.788,1.263,5.114l20.104,19.598l-4.747,27.67
				c-0.32,1.871,0.449,3.763,1.984,4.879c1.537,1.116,3.574,1.265,5.256,0.38l24.85-13.062l24.851,13.062
				c0.729,0.385,1.526,0.573,2.321,0.573c1.034,0,2.063-0.321,2.933-0.953c1.537-1.116,2.307-3.008,1.985-4.879l-4.746-27.671
				l20.104-19.598c1.359-1.326,1.85-3.31,1.263-5.114C119.166,342.061,117.604,340.745,115.724,340.473z"/>
			<path d="M245.724,340.473l-27.781-4.037l-12.426-25.176c-0.841-1.703-2.574-2.781-4.475-2.781c-1.9,0-3.633,1.078-4.475,2.781
				l-12.424,25.176l-27.783,4.037c-1.881,0.272-3.441,1.591-4.028,3.396s-0.099,3.788,1.263,5.114l20.104,19.598l-4.746,27.671
				c-0.32,1.871,0.449,3.763,1.984,4.879c1.537,1.116,3.574,1.265,5.256,0.38l24.849-13.063l24.851,13.062
				c0.729,0.385,1.526,0.573,2.321,0.573c1.034,0,2.063-0.321,2.934-0.953c1.536-1.116,2.308-3.008,1.984-4.879l-4.746-27.671
				l20.104-19.598c1.357-1.326,1.85-3.31,1.263-5.114C249.167,342.061,247.604,340.745,245.724,340.473z"/>
			<path d="M379.752,343.868c-0.587-1.809-2.147-3.123-4.028-3.396l-27.781-4.037l-12.426-25.177
				c-0.842-1.704-2.573-2.782-4.475-2.782s-3.634,1.078-4.475,2.782l-12.427,25.177l-27.78,4.037
				c-1.882,0.271-3.442,1.588-4.029,3.396c-0.587,1.807-0.097,3.788,1.263,5.114l20.104,19.598l-4.746,27.671
				c-0.321,1.871,0.448,3.763,1.983,4.879c0.87,0.632,1.898,0.953,2.935,0.953c0.795,0,1.592-0.188,2.321-0.573l24.851-13.062
				l24.85,13.062c0.73,0.385,1.527,0.573,2.321,0.573c1.035,0,2.065-0.321,2.937-0.953c1.533-1.116,2.305-3.008,1.982-4.879
				l-4.746-27.671l20.104-19.598C379.851,347.656,380.339,345.675,379.752,343.868z M351.406,361.419l-3.767,3.67l0.891,5.183
				l3.028,17.663l-15.862-8.34l-4.653-2.445V324.79l7.931,16.07l2.327,4.716l5.203,0.756l17.736,2.577L351.406,361.419z"/>
		</g>
	</g>
</g>
<g>
</g>
<g>
</g>
<g>
</g>
<g>
</g>
<g>
</g>
<g>
</g>
<g>
</g>
<g>
</g>
<g>
</g>
<g>
</g>
<g>
</g>
<g>
</g>
<g>
</g>
<g>
</g>
<g>
</g>
</svg>
