<?xml version="1.0" encoding="iso-8859-1"?>
<!-- Generator: Adobe Illustrator 19.1.0, SVG Export Plug-In . SVG Version: 6.00 Build 0)  -->
<svg fill="#333333" version="1.1" id="Capa_1" xmlns="http://www.w3.org/2000/svg" xmlns:xlink="http://www.w3.org/1999/xlink" x="0px" y="0px"
	 viewBox="0 0 489.516 489.516" style="enable-background:new 0 0 489.516 489.516;" xml:space="preserve">
<g>
	<g>
		<path d="M312.6,319.797c0-1.9,0.1-3.8,0.4-5.7c-29.1-13.3-45.7-24.2-45.7-24.2l-37.3,118l-5.1,16l-16.7-47.4
			c38.4-53.6-2.9-56.1-10.1-56.2l0,0H198h-0.1h-0.1h-0.1l0,0c-7.2,0.1-48.5,2.6-10.1,56.2l-16.7,47.4l-5.1-16l-37.3-118
			c0,0-29,18.9-77.4,37.4c-53.3,19.4-50,63.3-51.1,145.6h197.7h0.5h120.1c-3.5-5.7-5.5-12.4-5.5-19.5v-133.6H312.6z"/>
		<path d="M488.1,262.097c-2.2-5.2-8.8-14.1-28.9-14.3c-0.2,0-0.4,0-0.6,0c-12.4,0-27.1,3.3-41.6,9.3c-2.6,1.1-5.2,2.3-7.7,3.5
			l-0.1-0.1c-8.3-8.1-21.5-8.1-29.8,0l-40.7,39.4c-5.4,5.2-8.4,12.4-8.4,19.9v133.7c0,10.8,8.7,19.5,19.5,19.5h88.8
			c10.8,0,19.5-8.7,19.5-19.5v-133.7c0-3.8-0.8-7.6-2.3-11c8.6-4.8,16.1-10.3,21.9-16.1C491.8,278.297,490.3,267.297,488.1,262.097z
			 M434.9,300.597c-8.5,3.5-17.2,6-25.1,7.2c0,0.3,0.1,0.7,0.1,1c0,8.9-7.2,16.2-16.2,16.2c-8.9,0-16.2-7.2-16.2-16.2
			c0-8.9,7.2-16.2,16.2-16.2c5.3,0,10,2.6,13,6.5c7.5-1.3,15.6-3.6,23.6-6.9c2.8-1.2,5.4-2.4,7.9-3.6l-16.3-15.9
			c0.5-0.2,0.9-0.4,1.4-0.6c12.4-5.1,25.2-8,35.3-8c0.2,0,0.3,0,0.5,0c9.7,0.1,13.3,2.7,13.9,4.1
			C474.7,272.597,463.9,288.697,434.9,300.597z"/>
		<path d="M114.8,215.797c4.3,27.8,25.7,63.2,61,75.7c14.5,5.1,30.4,5.1,44.8-0.1c34.7-12.5,56.9-47.8,61.2-75.6
			c4.7-0.4,10.8-6.9,17.4-30.3c9.1-32-0.6-36.7-8.7-36c1.6-4.4,2.7-8.8,3.5-13.2c13.8-82.9-27-85.8-27-85.8s-6.8-13-24.6-22.9
			c-11.9-7.1-28.6-12.6-50.5-10.7c-7.1,0.3-13.8,1.7-20.1,3.8l0,0c-8.1,2.7-15.4,6.7-22.1,11.3c-8.2,5.2-15.9,11.6-22.8,18.8
			c-10.8,11-20.4,25.3-24.6,43.2c-3.5,13.3-2.7,27.2,0.2,42.2l0,0c0.8,4.4,2,8.8,3.5,13.2c-8.1-0.8-17.8,4-8.7,36
			C104,208.897,110.1,215.497,114.8,215.797z"/>
	</g>
</g>
<g>
</g>
<g>
</g>
<g>
</g>
<g>
</g>
<g>
</g>
<g>
</g>
<g>
</g>
<g>
</g>
<g>
</g>
<g>
</g>
<g>
</g>
<g>
</g>
<g>
</g>
<g>
</g>
<g>
</g>
</svg>
